<svg xmlns="http://www.w3.org/2000/svg" viewBox="0 0 512 512" role="img" aria-label="Medicina Integrada">
  <rect width="512" height="512" rx="96" fill="#ffffff"/>
  <g fill="none" stroke="#5f91dc" stroke-width="42" stroke-linecap="round" stroke-linejoin="round">
    <path d="M256 72c45 0 70 46 48 88 41-26 91-13 112 27 23 43-13 88-61 79 45 19 64 70 35 108-28 37-81 31-106-11v79c0 48-56 48-56 0v-79c-25 42-78 48-106 11-29-38-10-89 35-108-48 9-84-36-61-79 21-40 71-53 112-27-22-42 3-88 48-88Z"/>
    <path d="M256 104v116"/>
    <path d="M256 292v116"/>
    <path d="M104 256h116"/>
    <path d="M292 256h116"/>
  </g>
  <circle cx="256" cy="256" r="46" fill="#5f91dc"/>
  <circle cx="256" cy="256" r="20" fill="#ffffff"/>
</svg>
